# xmcd CD database file
#
# Track frame offsets:
#	150
#	25662
#	57053
#	84636
#	106658
#	129907
#	158858
#	182409
#
# Disc length: 2746 seconds
#
# Revision: 0
# Processed by: cddbd v1.5.1PL0 Copyright (c) Steve Scherf et al.
# Submitted via: CDex 1.51
#
DISCID=510ab808
DTITLE=沙弥音 - RED SONGS
DYEAR=2003
DGENRE=Rock
TTITLE0=さる
TTITLE1=メリーゴーランド オン ファイア
TTITLE2=ガラスの窓
TTITLE3=欠け逝く月
TTITLE4=深い淵
TTITLE5=炎の海
TTITLE6=凧
TTITLE7=魔都
EXTD=YEAR: 2003
EXTT0=
EXTT1=
EXTT2=
EXTT3=
EXTT4=
EXTT5=
EXTT6=
EXTT7=
PLAYORDER=
